<svg xmlns="http://www.w3.org/2000/svg">
  <symbol id="cart" viewBox="0 0 16 16">
    <path fill-rule="evenodd" clip-rule="evenodd" d="M1.1667 1.25a.6667.6667 0 0 0 0 1.3333h1.7712l.4675 2.3354a.664.664 0 0 0 .0106.0531l.9674 4.8333.0001.0006a1.8254 1.8254 0 0 0 1.8183 1.4691h5.6207a1.8256 1.8256 0 0 0 1.8185-1.4697l.001-.005.9271-4.8614a.6669.6669 0 0 0-.6549-.7915H4.6107l-.4726-2.3614a.6667.6667 0 0 0-.6537-.5358H1.1667ZM5.691 9.5444l-.8134-4.0639h8.2308l-.7756 4.0669a.4923.4923 0 0 1-.4918.3942v-.0001H6.1962v-.0001l-.0128.0002a.4922.4922 0 0 1-.4922-.3962l-.0002-.001Zm-1.1336 3.961c0-.6879.5577-1.2457 1.2457-1.2457.688 0 1.2457.5578 1.2457 1.2457 0 .688-.5577 1.2457-1.2457 1.2457-.688 0-1.2457-.5577-1.2457-1.2457Zm6.3733 0c0-.6879.5577-1.2457 1.2457-1.2457.688 0 1.2457.5578 1.2457 1.2457 0 .688-.5577 1.2457-1.2457 1.2457-.688 0-1.2457-.5577-1.2457-1.2457Z"/>
  </symbol>
  <symbol id="log-in" viewBox="0 0 16 16">
    <path fill-rule="evenodd" clip-rule="evenodd" d="M9 1.6667A.6667.6667 0 0 1 9.6667 1h2.6666a1.9997 1.9997 0 0 1 2 2v9.3333a1.9996 1.9996 0 0 1-2 2H9.6667a.6666.6666 0 1 1 0-1.3333h2.6666a.6664.6664 0 0 0 .4714-.1953.6664.6664 0 0 0 .1953-.4714V3a.6664.6664 0 0 0-.6667-.6667H9.6667A.6667.6667 0 0 1 9 1.6667ZM5.8619 3.8619a.6667.6667 0 0 1 .9428 0l3.3291 3.3291a.6624.6624 0 0 1 .129.177.664.664 0 0 1 .0705.2987.6636.6636 0 0 1-.1998.4759l-3.3288 3.3288a.6667.6667 0 1 1-.9428-.9428L8.057 8.3333H1.6668a.6667.6667 0 1 1 0-1.3333h6.3905L5.8619 4.8047a.6667.6667 0 0 1 0-.9428Z"/>
  </symbol>
  <symbol id="search" viewBox="0 0 16 16">
    <path fill-rule="evenodd" clip-rule="evenodd" d="M2.6634 7.33c0-2.5773 2.0893-4.6666 4.6667-4.6666 2.5773 0 4.6666 2.0893 4.6666 4.6667 0 1.2573-.4972 2.3984-1.3057 3.2375a.6833.6833 0 0 0-.1234.1235c-.8391.8085-1.9803 1.3056-3.2375 1.3056-2.5774 0-4.6667-2.0893-4.6667-4.6666Zm8.4118 4.688a5.9747 5.9747 0 0 1-3.7451 1.3121c-3.3137 0-6-2.6863-6-6s2.6863-6 6-6 6 2.6863 6 6a5.9745 5.9745 0 0 1-1.3121 3.7451l2.4501 2.4501a.6667.6667 0 1 1-.9428.9429l-2.4501-2.4502Z"/>
  </symbol>
</svg>
