<svg xmlns="http://www.w3.org/2000/svg">
  <symbol id="cart" viewBox="0 0 16 16">
    <path fill-rule="evenodd" clip-rule="evenodd" d="M1.1667 1.25a.6667.6667 0 0 0 0 1.3333h1.7712l.4675 2.3354a.664.664 0 0 0 .0106.0531l.9674 4.8333.0001.0006a1.8254 1.8254 0 0 0 1.8183 1.4691h5.6207a1.8256 1.8256 0 0 0 1.8185-1.4697l.001-.005.9271-4.8614a.6669.6669 0 0 0-.6549-.7915H4.6107l-.4726-2.3614a.6667.6667 0 0 0-.6537-.5358H1.1667ZM5.691 9.5444l-.8134-4.0639h8.2308l-.7756 4.0669a.4923.4923 0 0 1-.4918.3942v-.0001H6.1962v-.0001l-.0128.0002a.4922.4922 0 0 1-.4922-.3962l-.0002-.001Zm-1.1336 3.961c0-.6879.5577-1.2457 1.2457-1.2457.688 0 1.2457.5578 1.2457 1.2457 0 .688-.5577 1.2457-1.2457 1.2457-.688 0-1.2457-.5577-1.2457-1.2457Zm6.3733 0c0-.6879.5577-1.2457 1.2457-1.2457.688 0 1.2457.5578 1.2457 1.2457 0 .688-.5577 1.2457-1.2457 1.2457-.688 0-1.2457-.5577-1.2457-1.2457Z"/>
  </symbol>
  <symbol id="log-in" viewBox="0 0 16 16">
    <path fill-rule="evenodd" clip-rule="evenodd" d="M9 1.6667A.6667.6667 0 0 1 9.6667 1h2.6666a1.9997 1.9997 0 0 1 2 2v9.3333a1.9996 1.9996 0 0 1-2 2H9.6667a.6666.6666 0 1 1 0-1.3333h2.6666a.6664.6664 0 0 0 .4714-.1953.6664.6664 0 0 0 .1953-.4714V3a.6664.6664 0 0 0-.6667-.6667H9.6667A.6667.6667 0 0 1 9 1.6667ZM5.8619 3.8619a.6667.6667 0 0 1 .9428 0l3.3291 3.3291a.6624.6624 0 0 1 .129.177.664.664 0 0 1 .0705.2987.6636.6636 0 0 1-.1998.4759l-3.3288 3.3288a.6667.6667 0 1 1-.9428-.9428L8.057 8.3333H1.6668a.6667.6667 0 1 1 0-1.3333h6.3905L5.8619 4.8047a.6667.6667 0 0 1 0-.9428Z"/>
  </symbol>
  <symbol id="search" viewBox="0 0 16 16">
    <path fill-rule="evenodd" clip-rule="evenodd" d="M2.6634 7.33c0-2.5773 2.0893-4.6666 4.6667-4.6666 2.5773 0 4.6666 2.0893 4.6666 4.6667 0 1.2573-.4972 2.3984-1.3057 3.2375a.6833.6833 0 0 0-.1234.1235c-.8391.8085-1.9803 1.3056-3.2375 1.3056-2.5774 0-4.6667-2.0893-4.6667-4.6666Zm8.4118 4.688a5.9747 5.9747 0 0 1-3.7451 1.3121c-3.3137 0-6-2.6863-6-6s2.6863-6 6-6 6 2.6863 6 6a5.9745 5.9745 0 0 1-1.3121 3.7451l2.4501 2.4501a.6667.6667 0 1 1-.9428.9429l-2.4501-2.4502Z"/>
  </symbol>
  <symbol id="arrow" viewBox="0 0 16 16">
    <path fill-rule="evenodd" clip-rule="evenodd" d="M7.13526 2.8647c-.25969-.2597-.68075-.2597-.94045 0-.2597.25969-.2597.68075 0 .94045l4.20129 4.20128-4.20133 4.20127c-.25969.2597-.25969.6808 0 .9405.2597.2597.68076.2597.94046 0L11.804 8.47944c.0009-.00092.0018-.00185.0028-.00278.2597-.2597.2597-.68075 0-.94045L7.13526 2.8647Z"/>
  </symbol>
  <symbol id="telegram" viewBox="0 0 16 16">
    <path fill-rule="evenodd" clip-rule="evenodd" d="M16 8A8 8 0 1 1 0 8a8 8 0 0 1 16 0ZM8.287 5.906c-.778.323-2.334.993-4.666 2.01-.378.15-.577.297-.595.441-.03.244.275.34.69.47l.175.056c.408.133.958.288 1.243.294.26.006.549-.101.868-.32 2.179-1.471 3.303-2.214 3.374-2.23.05-.012.12-.026.166.016.047.041.042.12.037.141-.03.129-1.226 1.241-1.846 1.817a18.84 18.84 0 0 0-.546.522c-.38.366-.664.64.016 1.088.326.216.588.394.848.571.285.194.569.387.937.629.093.061.183.124.27.186.331.237.63.449.997.416.214-.02.435-.221.547-.82.265-1.418.786-4.487.907-5.752a1.41 1.41 0 0 0-.014-.315.337.337 0 0 0-.114-.217.522.522 0 0 0-.31-.093c-.301.005-.762.166-2.984 1.09Z"/>
  </symbol>
  <symbol id="vk" viewBox="0 0 16 16">
    <path fill-rule="evenodd" clip-rule="evenodd" d="M16 8A8 8 0 1 1 0 8a8 8 0 0 1 16 0ZM8.392 9.983h-.478s-1.055.056-1.984-.792c-1.013-.925-1.908-2.76-1.908-2.76s-.052-.12.004-.178c.063-.066.235-.07.235-.07l1.143-.006s.108.016.185.065c.063.041.099.118.099.118s.185.41.43.78c.477.723.7.881.861.803.237-.112.166-1.022.166-1.022s.004-.33-.12-.477c-.095-.114-.275-.147-.354-.156-.065-.008.041-.139.178-.198.206-.088.569-.093.998-.09.334.004.43.022.561.05.304.064.294.27.274.714a9.697 9.697 0 0 0-.013.464l-.003.126c-.007.228-.015.488.156.585.087.05.301.007.837-.79.254-.378.444-.822.444-.822s.042-.08.107-.113c.066-.035.155-.024.155-.024l1.203-.007s.361-.038.42.105c.061.15-.135.5-.627 1.075-.463.541-.69.743-.672.92.013.13.16.247.445.48.592.481.75.734.788.794a.326.326 0 0 0 .007.01c.265.386-.294.416-.294.416l-1.069.013s-.23.04-.531-.142c-.158-.095-.313-.25-.46-.398-.225-.226-.433-.435-.61-.386-.298.083-.289.646-.289.646s.002.12-.066.184c-.073.07-.218.083-.218.083Z"/>
  </symbol>
  <symbol id="youtube" viewBox="0 0 16 16">
    <path d="m9.336 7.86-1.872-.873c-.163-.075-.297.01-.297.19v1.646c0 .18.134.265.297.19l1.871-.874c.164-.076.164-.201 0-.278ZM8 0a8 8 0 1 0 0 16A8 8 0 0 0 8 0Zm0 11.25c-4.095 0-4.167-.37-4.167-3.25S3.905 4.75 8 4.75s4.167.37 4.167 3.25-.072 3.25-4.167 3.25Z"/>
  </symbol>
  <symbol id="cart" viewBox="0 0 16 16">
    <path fill-rule="evenodd" clip-rule="evenodd" d="M1.1667 1.25a.6667.6667 0 0 0 0 1.3333h1.7712l.4675 2.3354a.664.664 0 0 0 .0106.0531l.9674 4.8333.0001.0006a1.8254 1.8254 0 0 0 1.8183 1.4691h5.6207a1.8256 1.8256 0 0 0 1.8185-1.4697l.001-.005.9271-4.8614a.6669.6669 0 0 0-.6549-.7915H4.6107l-.4726-2.3614a.6667.6667 0 0 0-.6537-.5358H1.1667ZM5.691 9.5444l-.8134-4.0639h8.2308l-.7756 4.0669a.4923.4923 0 0 1-.4918.3942v-.0001H6.1962v-.0001l-.0128.0002a.4922.4922 0 0 1-.4922-.3962l-.0002-.001Zm-1.1336 3.961c0-.6879.5577-1.2457 1.2457-1.2457.688 0 1.2457.5578 1.2457 1.2457 0 .688-.5577 1.2457-1.2457 1.2457-.688 0-1.2457-.5577-1.2457-1.2457Zm6.3733 0c0-.6879.5577-1.2457 1.2457-1.2457.688 0 1.2457.5578 1.2457 1.2457 0 .688-.5577 1.2457-1.2457 1.2457-.688 0-1.2457-.5577-1.2457-1.2457Z"/>
  </symbol>
  <symbol id="radiobox" viewBox="0 0 16 16">
    <path fill-rule="evenodd" clip-rule="evenodd" d="M8.00194 1.33333C8.00116 1.33334 8.00037 1.33334 7.99958 1.33334C4.31791 1.33334 1.33333 4.31792 1.33333 7.99958C1.33333 11.6806 4.31686 14.6648 7.99763 14.6658C7.99842 14.6658 7.99921 14.6658 8 14.6658C11.6817 14.6658 14.6662 11.6812 14.6662 7.99957C14.6662 4.31856 11.6827 1.33439 8.00194 1.33333ZM8.00194 15.9991C8.00116 15.9991 8.00037 15.9992 7.99958 15.9992C3.58153 15.9992 0 12.4176 0 7.99958C0 3.58251 3.57996 0.00158592 7.99666 8.18445e-06C7.99777 2.73026e-06 7.99888 0 8 0C12.418 0 15.9996 3.58153 15.9996 7.99957C15.9996 12.417 12.4191 15.9981 8.00194 15.9991Z"/>
  </symbol>
  <symbol id="checkbox-on" viewBox="0 0 16 16">
    <g clip-path="url(#a)">
      <path fill-rule="evenodd" clip-rule="evenodd" d="M1.6153 1.6153a.9619.9619 0 0 1 .6803-.282h8.9589a.6667.6667 0 1 0 0-1.3333H2.2956C1.6867 0 1.1028.242.6723.6727a2.2966 2.2966 0 0 0-.6722 1.6235v11.4071a2.2954 2.2954 0 0 0 2.2956 2.2962h11.4021c.6089 0 1.1929-.242 1.6233-.6726a2.2966 2.2966 0 0 0 .6723-1.6236V7.9998a.6667.6667 0 0 0-1.3333 0v5.7035a.9633.9633 0 0 1-.282.681.962.962 0 0 1-.6803.2819H2.2956a.962.962 0 0 1-.6803-.2819.9633.9633 0 0 1-.282-.681V2.2963a.9633.9633 0 0 1 .282-.681Zm14.2014.3251a.6667.6667 0 1 0-.968-.917l-7.2346 7.637L5.7825 6.727a.6667.6667 0 0 0-.968.917l2.3156 2.4443a.6667.6667 0 0 0 .968 0l7.7186-8.1479Z"/>
    </g>
    <defs>
      <clipPath id="a">
        <path d="M0 0h16v16H0z"/>
      </clipPath>
    </defs>
  </symbol>
  <symbol id="checkbox-off" viewBox="0 0 16 16">
    <g clip-path="url(#a)">
      <path fill-rule="evenodd" clip-rule="evenodd" d="M1.62 1.62a.96.96 0 0 1 .68-.29h11.4c.24 0 .34.03.4.06a1 1 0 0 1 .28.23c.21.2.29.43.29.68V13.7a.96.96 0 0 1-.97.96H2.3a.96.96 0 0 1-.97-.96V2.3c0-.26.1-.5.29-.68Zm14.22 12.92A2.3 2.3 0 0 1 13.7 16H2.3A2.3 2.3 0 0 1 0 13.7V2.3A2.3 2.3 0 0 1 1.46.16c.11-.1.27-.16.43-.16H13.7c.34 0 .65.04.94.17.28.12.5.31.69.5.48.48.67 1.06.67 1.63v11.8c0 .18-.06.33-.16.44Z"/>
    </g>
    <defs>
      <clipPath id="a">
        <path d="M0 0h16v16H0z"/>
      </clipPath>
    </defs>
  </symbol>
</svg>
