<svg width="16" height="16" viewBox="0 0 16 16" fill="none" xmlns="http://www.w3.org/2000/svg">
  <path fill-rule="evenodd" clip-rule="evenodd" d="M8.00027 2.33333c-3.12976 0-5.66694 2.53718-5.66694 5.66694 0 3.12973 2.53718 5.66693 5.66694 5.66693 3.12973 0 5.66693-2.5372 5.66693-5.66693 0-3.12976-2.5372-5.66694-5.66693-5.66694ZM1 8.00027C1 4.13413 4.13413 1 8.00027 1c3.86613 0 7.00023 3.13413 7.00023 7.00027 0 3.86613-3.1341 7.00023-7.00023 7.00023C4.13413 15.0005 1 11.8664 1 8.00027Zm7.00006-.66695c.36819 0 .66666.29848.66666.66667v2.53341c0 .3682-.29847.6667-.66666.6667s-.66667-.2985-.66667-.6667V7.99999c0-.36819.29848-.66667.66667-.66667Zm0-2.53343c-.36819 0-.66667.29847-.66667.66666s.29848.66667.66667.66667h.00666c.36819 0 .66667-.29848.66667-.66667 0-.36819-.29848-.66666-.66667-.66666h-.00666Z" fill="#2D3440"/>
</svg>
